<svg id="Capa_1" x="0px" y="0px" viewBox="0 0 300 300" style="enable-background:new 0 0 300 300;" xmlns="http://www.w3.org/2000/svg" xmlns:xlink="http://www.w3.org/1999/xlink">
    <symbol id="queen" viewBox="000 00 500 550">
        <path id="queen" fill="white"
            d="M477.518 181.966a25 25 0 0 1-34.91 23l-62.29 150.26h-248.92l-62.24-150.19a25 25 0 1 1 9.73-7.29l87 71.2 20.92-126.4a25 25 0 1 1 14.7-1.85l54.31 117 54.42-117.3a25 25 0 1 1 14.58 2.08l20.93 126.42 87.26-71.3a25 25 0 1 1 44.51-15.63zm-71.66 241.25h-300v60h300v-60zm-27.75-52h-244.22v36h244.22v-36z" />
    </symbol>
    <rect x="0.0" y="0.0" width="100.0" height="100.0" fill="#5c5b5b" />
    <rect x="0.0" y="100.0" width="100.0" height="100.0" fill="#0f0f0f" />
    <use xlink:href="#queen" x="0.0" y="100.0" width="100.0" height="100.0" />
    <rect x="0.0" y="200.0" width="100.0" height="100.0" fill="#5c5b5b" />
    <rect x="100.0" y="0.0" width="100.0" height="100.0" fill="#0f0f0f" />
    <use xlink:href="#queen" x="100.0" y="0.0" width="100.0" height="100.0" />
    <rect x="100.0" y="100.0" width="100.0" height="100.0" fill="#5c5b5b" />
    <rect x="100.0" y="200.0" width="100.0" height="100.0" fill="#0f0f0f" />
    <rect x="200.0" y="0.0" width="100.0" height="100.0" fill="#5c5b5b" />
    <rect x="200.0" y="100.0" width="100.0" height="100.0" fill="#0f0f0f" />
    <rect x="200.0" y="200.0" width="100.0" height="100.0" fill="#5c5b5b" />
</svg>