<?xml version="1.0" encoding="iso-8859-1"?>
<!-- Generator: Adobe Illustrator 19.0.0, SVG Export Plug-In . SVG Version: 6.00 Build 0)  -->
<svg id="Capa_1" x="0px" y="0px"
	 viewBox="0 0 300 300" style="enable-background:new 0 0 300 300;">
	<g>
		<rect x="0" y="0" width="60" height="60"/>
		<rect x="120" y="0" width="60" height="60"/>
		<rect x="240" y="0" width="60" height="60" />
		<rect x="60" y="60" width="60" height="60"/>
		<rect x="180" y="60" width="60" height="60"/>
		<rect x="0" y="120" width="60" height="60"/>
		<rect x="120" y="120" width="60" height="60"/>
		<rect fill="aliceblue" x="240" y="120" width="60" height="60" />
		<symbol id="queen" viewBox="000 00 500 500">
			<path id="queen" fill="white" d="M477.518 181.966a25 25 0 0 1-34.91 23l-62.29 150.26h-248.92l-62.24-150.19a25 25 0 1 1 9.73-7.29l87 71.2 20.92-126.4a25 25 0 1 1 14.7-1.85l54.31 117 54.42-117.3a25 25 0 1 1 14.58 2.08l20.93 126.42 87.26-71.3a25 25 0 1 1 44.51-15.63zm-71.66 241.25h-300v60h300v-60zm-27.75-52h-244.22v36h244.22v-36z"/>
		</symbol>
		<!-- <rect x="217" y="46.5" width="35" height="34"/>
		<rect x="149" y="46.5" width="35" height="34"/>
		<rect x="83" y="46.5" width="33" height="34"/>
		<rect x="184" y="80.5" width="33" height="35"/>
		<rect x="116" y="80.5" width="33" height="35"/>
		<rect x="47" y="80.5" width="36" height="35"/>
		<rect x="217" y="115.5" width="35" height="33"/>
		<rect x="149" y="115.5" width="35" height="33"/>
		<rect x="83" y="115.5" width="33" height="33"/>
		<rect x="184" y="148.5" width="33" height="33"/>
		<rect x="116" y="148.5" width="33" height="33"/>
		<rect x="47" y="148.5" width="36" height="33"/>
		<rect x="217" y="181.5" width="35" height="35"/>
		<rect x="149" y="181.5" width="35" height="35"/>
		<rect x="83" y="181.5" width="33" height="35"/>
		<rect x="184" y="216.5" width="33" height="34"/>
		<rect x="116" y="216.5" width="33" height="34"/>
		<rect x="47" y="216.5" width="36" height="34"/> -->
	</g>
	<use xlink:href="#queen" width="60"  height="60" x="0" y="0"/>
</svg>
