<svg xmlns="http://www.w3.org/2000/svg" xmlns:xlink="http://www.w3.org/1999/xlink" x="0px" y="0px" width="40%" viewBox="0 0 300 300" style="enable-background:new 0 0 300 300;"><symbol id="queen" viewBox="000 00 500 550"><path id="queen" d="M477.518 181.966a25 25 0 0 1-34.91 23l-62.29 150.26h-248.92l-62.24-150.19a25 25 0 1 1 9.73-7.29l87 71.2 20.92-126.4a25 25 0 1 1 14.7-1.85l54.31 117 54.42-117.3a25 25 0 1 1 14.58 2.08l20.93 126.42 87.26-71.3a25 25 0 1 1 44.51-15.63zm-71.66 241.25h-300v60h300v-60zm-27.75-52h-244.22v36h244.22v-36z"/></symbol><rect x="0.0" y="0.0" width="42.857142857142854" height="42.857142857142854" fill="#eeeed2"/><rect x="0.0" y="42.857142857142854" width="42.857142857142854" height="42.857142857142854" fill="#779455"/><rect x="0.0" y="85.71428571428571" width="42.857142857142854" height="42.857142857142854" fill="#eeeed2"/><rect x="0.0" y="128.57142857142856" width="42.857142857142854" height="42.857142857142854" fill="#779455"/><rect x="0.0" y="171.42857142857142" width="42.857142857142854" height="42.857142857142854" fill="#eeeed2"/><rect x="0.0" y="214.28571428571428" width="42.857142857142854" height="42.857142857142854" fill="#779455"/><rect x="0.0" y="257.1428571428571" width="42.857142857142854" height="42.857142857142854" fill="#eeeed2"/><rect x="42.857142857142854" y="0.0" width="42.857142857142854" height="42.857142857142854" fill="#779455"/><rect x="42.857142857142854" y="42.857142857142854" width="42.857142857142854" height="42.857142857142854" fill="#eeeed2"/><rect x="42.857142857142854" y="85.71428571428571" width="42.857142857142854" height="42.857142857142854" fill="#779455"/><rect x="42.857142857142854" y="128.57142857142856" width="42.857142857142854" height="42.857142857142854" fill="#eeeed2"/><rect x="42.857142857142854" y="171.42857142857142" width="42.857142857142854" height="42.857142857142854" fill="#779455"/><rect x="42.857142857142854" y="214.28571428571428" width="42.857142857142854" height="42.857142857142854" fill="#eeeed2"/><rect x="42.857142857142854" y="257.1428571428571" width="42.857142857142854" height="42.857142857142854" fill="#779455"/><rect x="85.71428571428571" y="0.0" width="42.857142857142854" height="42.857142857142854" fill="#eeeed2"/><rect x="85.71428571428571" y="42.857142857142854" width="42.857142857142854" height="42.857142857142854" fill="#779455"/><rect x="85.71428571428571" y="85.71428571428571" width="42.857142857142854" height="42.857142857142854" fill="#eeeed2"/><rect x="85.71428571428571" y="128.57142857142856" width="42.857142857142854" height="42.857142857142854" fill="#779455"/><rect x="85.71428571428571" y="171.42857142857142" width="42.857142857142854" height="42.857142857142854" fill="#eeeed2"/><rect x="85.71428571428571" y="214.28571428571428" width="42.857142857142854" height="42.857142857142854" fill="#779455"/><rect x="85.71428571428571" y="257.1428571428571" width="42.857142857142854" height="42.857142857142854" fill="#eeeed2"/><rect x="128.57142857142856" y="0.0" width="42.857142857142854" height="42.857142857142854" fill="#779455"/><rect x="128.57142857142856" y="42.857142857142854" width="42.857142857142854" height="42.857142857142854" fill="#eeeed2"/><rect x="128.57142857142856" y="85.71428571428571" width="42.857142857142854" height="42.857142857142854" fill="#779455"/><rect x="128.57142857142856" y="128.57142857142856" width="42.857142857142854" height="42.857142857142854" fill="#eeeed2"/><rect x="128.57142857142856" y="171.42857142857142" width="42.857142857142854" height="42.857142857142854" fill="#779455"/><rect x="128.57142857142856" y="214.28571428571428" width="42.857142857142854" height="42.857142857142854" fill="#eeeed2"/><rect x="128.57142857142856" y="257.1428571428571" width="42.857142857142854" height="42.857142857142854" fill="#779455"/><rect x="171.42857142857142" y="0.0" width="42.857142857142854" height="42.857142857142854" fill="#eeeed2"/><rect x="171.42857142857142" y="42.857142857142854" width="42.857142857142854" height="42.857142857142854" fill="#779455"/><rect x="171.42857142857142" y="85.71428571428571" width="42.857142857142854" height="42.857142857142854" fill="#eeeed2"/><rect x="171.42857142857142" y="128.57142857142856" width="42.857142857142854" height="42.857142857142854" fill="#779455"/><rect x="171.42857142857142" y="171.42857142857142" width="42.857142857142854" height="42.857142857142854" fill="#eeeed2"/><rect x="171.42857142857142" y="214.28571428571428" width="42.857142857142854" height="42.857142857142854" fill="#779455"/><rect x="171.42857142857142" y="257.1428571428571" width="42.857142857142854" height="42.857142857142854" fill="#eeeed2"/><rect x="214.28571428571428" y="0.0" width="42.857142857142854" height="42.857142857142854" fill="#779455"/><rect x="214.28571428571428" y="42.857142857142854" width="42.857142857142854" height="42.857142857142854" fill="#eeeed2"/><rect x="214.28571428571428" y="85.71428571428571" width="42.857142857142854" height="42.857142857142854" fill="#779455"/><rect x="214.28571428571428" y="128.57142857142856" width="42.857142857142854" height="42.857142857142854" fill="#eeeed2"/><rect x="214.28571428571428" y="171.42857142857142" width="42.857142857142854" height="42.857142857142854" fill="#779455"/><rect x="214.28571428571428" y="214.28571428571428" width="42.857142857142854" height="42.857142857142854" fill="#eeeed2"/><rect x="214.28571428571428" y="257.1428571428571" width="42.857142857142854" height="42.857142857142854" fill="#779455"/><rect x="257.1428571428571" y="0.0" width="42.857142857142854" height="42.857142857142854" fill="#eeeed2"/><rect x="257.1428571428571" y="42.857142857142854" width="42.857142857142854" height="42.857142857142854" fill="#779455"/><rect x="257.1428571428571" y="85.71428571428571" width="42.857142857142854" height="42.857142857142854" fill="#eeeed2"/><rect x="257.1428571428571" y="128.57142857142856" width="42.857142857142854" height="42.857142857142854" fill="#779455"/><rect x="257.1428571428571" y="171.42857142857142" width="42.857142857142854" height="42.857142857142854" fill="#eeeed2"/><rect x="257.1428571428571" y="214.28571428571428" width="42.857142857142854" height="42.857142857142854" fill="#779455"/><rect x="257.1428571428571" y="257.1428571428571" width="42.857142857142854" height="42.857142857142854" fill="#eeeed2"/><use xlink:href="#queen" x="0.0" y="42.857142857142854" width="42.857142857142854" height="42.857142857142854" fill="white" stroke="black" stroke-width="20px"/><use xlink:href="#queen" x="42.857142857142854" y="171.42857142857142" width="42.857142857142854" height="42.857142857142854" fill="#ff4c4c" stroke="black" stroke-width="20px"/><use xlink:href="#queen" x="85.71428571428571" y="85.71428571428571" width="42.857142857142854" height="42.857142857142854" fill="#ff4c4c" stroke="black" stroke-width="20px"/><use xlink:href="#queen" x="128.57142857142856" y="214.28571428571428" width="42.857142857142854" height="42.857142857142854" fill="white" stroke="black" stroke-width="20px"/><use xlink:href="#queen" x="171.42857142857142" y="128.57142857142856" width="42.857142857142854" height="42.857142857142854" fill="white" stroke="black" stroke-width="20px"/><use xlink:href="#queen" x="214.28571428571428" y="0.0" width="42.857142857142854" height="42.857142857142854" fill="#ff4c4c" stroke="black" stroke-width="20px"/><use xlink:href="#queen" x="257.1428571428571" y="257.1428571428571" width="42.857142857142854" height="42.857142857142854" fill="#ff4c4c" stroke="black" stroke-width="20px"/></svg>